<svg version="1.1" id="Logo" xmlns="http://www.w3.org/2000/svg" xmlns:xlink="http://www.w3.org/1999/xlink" x="0px" y="0px"
	 width="700px" height="206.13px" viewBox="-349.5 25.43 700 206.13" enable-background="new -349.5 25.43 700 206.13"
	 xml:space="preserve">
  <title>The Long Trip</title>
  <defs>
  <clipPath id="logo_vector">
  	<polygon fill="#232323" points="-284.65,121.08 -270.34,121.08 -270.34,38.1 -255.08,38.1 -255.08,26.67 -299.91,26.67 
  		-299.91,38.1 -284.65,38.1 		"/>
  	<polygon fill="#232323" points="-232.19,78.17 -215.03,78.17 -215.03,121.08 -200.72,121.08 -200.72,26.67 -215.03,26.67 
  		-215.03,66.72 -232.19,66.72 -232.19,26.67 -246.5,26.67 -246.5,121.08 -232.19,121.08 		"/>
  	<polygon fill="#232323" points="-150.18,110.59 -171.16,110.59 -171.16,78.17 -154.95,78.17 -154.95,66.72 -171.16,66.72 
  		-171.16,38.1 -150.18,38.1 -150.18,26.67 -185.46,26.67 -185.46,121.08 -150.18,121.08 		"/>
  	<polygon fill="#232323" points="-83.42,110.59 -103.45,110.59 -103.45,26.67 -117.75,26.67 -117.75,121.08 -83.42,121.08 		"/>
  	<path fill="#232323" d="M-73.69,110.98c1.24,2.29,2.67,4.2,4.29,5.62c1.63,1.43,3.24,2.48,5.06,3.34
  		c1.71,0.75,3.52,1.23,5.24,1.52c1.81,0.29,3.43,0.38,4.96,0.38c1.33,0,2.86-0.09,4.58-0.38c1.71-0.28,3.43-0.77,5.14-1.62
  		c1.72-0.77,3.44-1.91,5.06-3.34c1.62-1.44,3.05-3.34,4.38-5.62c1.24-2.39,2.2-5.25,3.05-8.59c0.77-3.34,1.15-7.44,1.15-12.11
  		V56.61c0-4.86-0.38-8.97-1.15-12.4c-0.76-3.43-1.71-6.29-2.95-8.59c-1.24-2.28-2.67-4.09-4.29-5.53
  		c-1.62-1.33-3.34-2.38-5.06-3.05c-1.72-0.67-3.44-1.14-5.16-1.33c-1.71-0.2-3.23-0.29-4.66-0.29s-3.05,0.09-4.87,0.29
  		c-1.72,0.19-3.53,0.66-5.24,1.42c-1.72,0.77-3.44,1.82-5.06,3.15c-1.62,1.34-3.05,3.24-4.29,5.53c-1.24,2.28-2.67,5.15-3.44,8.48
  		c-0.76,3.34-1.62,7.45-1.62,12.21v33.57c0,4.77,0.77,8.77,1.53,12.2C-76.36,105.82-74.93,108.68-73.69,110.98z M-63.39,52.7
  		c0-3.04,0.48-5.53,0.86-7.63c0.38-2,1.05-3.63,1.72-4.86c0.67-1.24,1.62-2.11,2.77-2.67c1.05-0.48,2.38-0.77,3.81-0.77
  		s2.67,0.29,3.72,0.77c1.05,0.48,1.91,1.43,2.58,2.67c0.66,1.23,1.05,2.86,1.34,4.86c0.38,2,0.38,4.59,0.38,7.63v43.02
  		c0,2.95,0,5.44-0.38,7.34c-0.38,1.91-0.77,3.53-1.44,4.68c-0.66,1.14-1.52,2-2.57,2.48c-1.05,0.48-2.29,0.77-3.63,0.77
  		c-1.43,0-2.66-0.29-3.72-0.77c-1.05-0.48-1.91-1.34-2.67-2.48c-0.66-1.15-1.52-2.77-1.91-4.68c-0.38-1.9-0.86-4.38-0.86-7.34V52.7
  		z"/>
  	<path fill="#232323" d="M-6.17,93.14c0-4.77,0.2-8.96,0.1-12.4c-0.1-3.53-0.1-6.58-0.29-9.16c-0.2-2.66-0.29-4.48-0.48-6.48
  		c-0.2-1.91-0.29-4.09-0.38-5.06h0.48l22.79,61.03H27.2V26.67H14.81v34.14c0,3.62,0.09,6.96,0.27,9.82
  		c0.1,2.95,0.29,5.53,0.38,7.83c0.2,2.28,0.29,4.86,0.48,6.66c0.19,1.82,0.38,3.53,0.48,5.45h-0.29l-22.98-63.9h-11.74v94.41h12.4
  		V93.14z"/>
  	<path fill="#232323" d="M44.85,110.98c1.24,2.38,2.59,4.2,4.1,5.62c1.52,1.43,3.06,2.48,4.68,3.34c1.52,0.75,3.05,1.23,4.58,1.52
  		c1.43,0.29,2.77,0.38,3.9,0.38c3.26,0,6.01-0.77,8.31-2.28c2.38-1.53,4.38-4.01,6.2-7.54l1.52,9.05h9.16V73.4H65.36v9.54h7.62
  		v11.82c0,2.29,0.19,4.4-0.2,6.4c-0.38,1.99-0.77,3.62-1.42,5.05c-0.77,1.44-1.62,2.58-2.77,3.44c-1.14,0.86-2.47,1.24-4.1,1.24
  		c-1.53,0-2.76-0.29-3.91-0.77c-1.05-0.48-2-1.34-2.67-2.48c-0.77-1.15-1.73-2.77-2.09-4.68c-0.38-2-1.05-4.38-1.05-7.34V52.7
  		c0-3.04,0.67-5.53,1.05-7.63c0.37-2,1.13-3.63,1.9-4.86c0.77-1.24,1.82-2.11,2.87-2.67c1.15-0.48,2.48-0.77,3.91-0.77
  		c5.53,0,8.39,5.15,8.39,15.55v4.86h11.54c0.38-1.9,0.77-4.1,0.95-5.81c0.28-1.71,0.38-3.73,0.38-5.73c0-2.76-0.38-5.34-1.05-7.81
  		c-0.77-2.49-1.91-4.59-3.53-6.39c-1.62-1.82-3.8-3.24-6.39-4.3c-2.67-1.05-5.91-1.62-9.72-1.62c-1.53,0-3.16,0.09-4.95,0.29
  		c-1.82,0.19-3.55,0.66-5.35,1.42s-3.53,1.73-5.24,3.15c-1.71,1.34-3.15,3.24-4.48,5.53c-1.34,2.29-2.47,5.15-3.23,8.48
  		c-0.77,3.34-1.34,7.45-1.34,12.21v33.57c0,4.77,0.48,8.77,1.24,12.21C42.57,105.82,43.61,108.68,44.85,110.98z"/>
  	<polygon fill="#232323" points="131.16,121.08 145.46,121.08 145.46,38.1 160.73,38.1 160.73,26.67 115.9,26.67 115.9,38.1 
  		131.16,38.1 		"/>
  	<path fill="#232323" d="M183.61,85.79h5.63l12.59,35.28H217l-15.16-37.96c4.01-2,6.66-5.24,8.67-9.82
  		c2.11-4.49,2.67-10.39,2.67-17.65v-2.28c0-4.29,0-7.91-0.95-10.97c-0.96-3.05-1.91-5.53-3.45-7.53c-1.52-2.01-3.14-3.52-5.15-4.67
  		c-2-1.14-4-2-6.1-2.58c-2.09-0.57-4.2-0.77-6.39-0.86c-2.09-0.19-4,0-5.82,0h-16.02v94.42h14.3V85.79z M183.61,37.16h2.38
  		c2.68,0,4.77,0.09,6.58,0.67c1.73,0.56,3.15,1.33,4.2,2.48c1.05,1.14,1.43,2.58,1.91,4.29c0.48,1.72,0.28,3.81,0.28,6.3v7.44
  		c0,3.14,0.1,5.82-0.38,8.01c-0.48,2.2-1.05,3.91-2.09,5.24c-1.05,1.34-2.38,2.29-4.1,2.87c-1.71,0.57-3.81,0.86-6.3,0.86h-2.38
  		V37.16H183.61z"/>
  	<rect x="226.52" y="26.67" fill="#232323" width="14.31" height="94.41"/>
  	<path fill="#232323" d="M270.41,92.47h1.42c1.8,0,3.82-0.29,5.91-0.58c2.09-0.28,4.2-0.86,6.2-1.62c2-0.77,4.02-1.92,5.91-3.43
  		c1.91-1.44,3.53-3.44,5.05-5.91c1.42-2.48,2.29-5.53,3.15-9.06c0.86-3.62,0.95-7.91,0.95-12.97v-3.34c0-4.67-0.19-8.59-1.15-11.82
  		c-0.95-3.24-2-5.91-3.62-8.12c-1.53-2.19-3.25-3.9-5.25-5.15c-2-1.24-4.1-2.19-6.19-2.77c-2.2-0.57-4.3-0.86-6.49-0.95
  		c-2.2-0.19-4.1-0.09-5.91-0.09h-15.27v94.41h15.27V92.47z M270.41,37.16h0.77c2.66,0,4.95,0.09,6.66,0.77
  		c1.71,0.66,3.15,1.52,4.2,2.86c1.04,1.34,1.71,2.96,2.09,5.06s0.47,4.38,0.47,7.24v8.48c0,3.53-0.09,6.59-0.56,9.16
  		c-0.48,2.58-1.14,4.59-2.2,6.2c-1.05,1.62-2.48,2.95-4.2,3.72c-1.81,0.77-3.91,1.33-6.48,1.33h-0.77V37.16z"/>
  	<path fill="#232323" d="M336.3,122.71c-7.24,0-13.26,5.05-14.21,12.67h-643.07c-0.96-7.62-6.87-12.67-14.21-12.67
  		c-7.91,0-14.31,6.28-14.31,14.2c0,7.92,6.39,14.49,14.31,14.49c7.25,0,13.17-5.53,14.12-12.2h27.75l29.28,50.45
  		c-0.77,3.81-2.2,10.97-2.1,11.26c0.09,0.38,1.24-2.02,1.72-1.91c0.58,0,1.62,2.39,1.72,2.2c0.09-0.19-0.38-9.07-0.67-12.49
  		l28.61-49.41h21.85l43.29,74.68c-0.95,4.49-3.14,15.84-3.05,16.22c0.09,0.48,1.62-0.48,2.29-0.48c0.66,0,2.19,1.05,2.28,0.77
  		c0.1-0.2-0.47-11.26-0.85-16.13l43.49-75.06h41.58l29.09,50.08c-0.66,3.13-2.38,12.2-2.38,12.49c0.09,0.38,1.24-2.01,1.72-1.91
  		c0.57,0,1.62,2.38,1.71,2.2s-0.38-9.26-0.66-12.59l29.09-50.27H-3.5l43.78,75.54l0.09-0.28c-0.96,4.29-3.15,16.21-3.15,16.59
  		c0.09,0.47,1.62-0.48,2.29-0.38c0.66,0,2.2,1.05,2.3,0.76c0.09-0.27-0.67-14.4-1.05-17.64l43.1-74.49h41.39l28.71,49.5
  		c-0.58,2.29-2.59,12.79-2.49,13.07c0.1,0.38,1.25-2.01,1.73-1.91c0.57,0,1.62,2.38,1.71,2.2s-0.48-10.12-0.77-13.16l0.38,0.86
  		l29.56-50.74h21.85l43.01,74.2c-1.05,5.15-2.86,14.39-2.77,14.77c0.09,0.48,1.62-0.48,2.28-0.48c0.67,0,2.2,1.05,2.29,0.76
  		c0.09-0.19-0.38-9.05-0.77-14.4l43.4-74.86h28.71c0.95,6.67,6.97,12.1,14.11,12.1c7.91,0,14.3-6.38,14.3-14.3
  		C350.5,129.09,344.21,122.71,336.3,122.71z"/>
  </clipPath>
</defs>
  <image overflow="visible" width="700" height="206.13" x="-349.5" y="25.43" xlink:href="/static/images/logo_bg.jpg" clip-path="url(#logo_vector)">
  </image>
</svg>
