<svg version="1.1" id="thelongtrip-logo" xmlns="http://www.w3.org/2000/svg" xmlns:xlink="http://www.w3.org/1999/xlink" x="0px" y="0px"
   width="700px" height="206.14px" viewBox="-285.91 -39.2 700 206.14" enable-background="new -285.91 -39.2 700 206.14"
   xml:space="preserve">
  <g>
    <defs>
      <clipPath id="logo_vector">
        <path id="path1" d="M-221.05,56.46h14.3v-82.97h15.26v-11.45h-44.83v11.45h15.27V56.46z M-168.61,13.55h17.17v42.91h14.3v-94.41
          h-14.3V2.1h-17.17v-40.05h-14.3v94.41h14.3V13.55z M-86.59,45.98h-20.98V13.55h16.21V2.1h-16.21v-28.61h20.98v-11.45h-35.29v94.41
          h35.29V45.98z M-19.83,45.98h-20.03v-83.93h-14.3v94.41h34.34V45.98z M-10.1,46.35c1.23,2.29,2.67,4.2,4.29,5.63
          c1.62,1.43,3.24,2.48,5.05,3.34c1.72,0.76,3.53,1.24,5.25,1.52c1.81,0.29,3.43,0.38,4.96,0.38c1.33,0,2.86-0.09,4.58-0.38
          c1.71-0.28,3.43-0.77,5.14-1.62c1.72-0.77,3.44-1.91,5.06-3.34c1.62-1.43,3.05-3.34,4.38-5.62c1.24-2.38,2.2-5.24,3.05-8.58
          c0.77-3.34,1.15-7.45,1.15-12.12V-8.01c0-4.86-0.38-8.96-1.15-12.4c-0.76-3.43-1.71-6.29-2.95-8.58s-2.67-4.1-4.29-5.53
          c-1.62-1.34-3.34-2.38-5.05-3.05s-3.44-1.14-5.16-1.34c-1.71-0.19-3.23-0.29-4.66-0.29s-3.05,0.1-4.87,0.29
          c-1.72,0.2-3.53,0.66-5.24,1.43c-1.72,0.77-3.44,1.81-5.05,3.15c-1.62,1.34-3.05,3.24-4.3,5.53c-1.23,2.29-2.66,5.15-3.43,8.48
          c-0.77,3.34-1.62,7.45-1.62,12.21v33.57c0,4.77,0.77,8.77,1.52,12.21C-12.77,41.2-11.34,44.06-10.1,46.35z M0.2-11.92
          c0-3.05,0.48-5.52,0.86-7.62c0.38-2,1.05-3.62,1.72-4.86c0.66-1.24,1.62-2.1,2.77-2.67c1.05-0.48,2.38-0.77,3.81-0.77
          s2.67,0.29,3.72,0.77s1.91,1.43,2.58,2.67c0.66,1.23,1.05,2.86,1.34,4.86c0.38,2,0.38,4.58,0.38,7.62v43.02
          c0,2.96,0,5.44-0.38,7.34c-0.38,1.91-0.77,3.53-1.44,4.67c-0.66,1.15-1.52,2.01-2.57,2.48c-1.05,0.48-2.29,0.76-3.62,0.76
          c-1.43,0-2.66-0.28-3.72-0.76c-1.05-0.48-1.91-1.34-2.67-2.48c-0.66-1.14-1.52-2.77-1.91-4.67S0.2,34.05,0.2,31.09V-11.92z
           M57.42,28.52c0-4.77,0.19-8.97,0.09-12.41c-0.09-3.52-0.09-6.58-0.29-9.15c-0.19-2.67-0.29-4.48-0.48-6.48
          c-0.2-1.91-0.28-4.1-0.38-5.05h0.48l22.79,61.03h11.16v-94.41H78.4v34.14c0,3.62,0.1,6.96,0.28,9.83
          c0.09,2.95,0.29,5.52,0.38,7.82c0.19,2.28,0.29,4.86,0.48,6.67c0.2,1.81,0.38,3.53,0.48,5.44h-0.28l-22.98-63.9H45.02v94.41h12.41
          V28.52z M108.44,46.35c1.24,2.38,2.58,4.2,4.1,5.63s3.05,2.48,4.68,3.34c1.52,0.76,3.04,1.24,4.57,1.52
          c1.44,0.29,2.77,0.38,3.91,0.38c3.25,0,6.01-0.77,8.3-2.29c2.38-1.52,4.38-4,6.2-7.53l1.52,9.05h9.16V8.77h-21.93v9.55h7.63v11.82
          c0,2.29,0.19,4.39-0.2,6.39s-0.77,3.62-1.42,5.05c-0.77,1.43-1.63,2.57-2.78,3.44c-1.13,0.85-2.47,1.23-4.09,1.23
          c-1.53,0-2.77-0.28-3.91-0.77c-1.04-0.47-2-1.34-2.66-2.48c-0.77-1.14-1.73-2.77-2.1-4.67c-0.38-2-1.05-4.39-1.05-7.34v-42.92
          c0-3.05,0.66-5.52,1.05-7.62c0.38-2,1.14-3.62,1.91-4.86c0.77-1.24,1.82-2.1,2.86-2.67c1.15-0.48,2.48-0.77,3.91-0.77
          c5.53,0,8.39,5.15,8.39,15.55v4.86h11.54c0.38-1.9,0.77-4.1,0.95-5.81c0.28-1.72,0.38-3.72,0.38-5.73c0-2.77-0.38-5.34-1.05-7.81
          c-0.77-2.48-1.91-4.58-3.53-6.39c-1.62-1.82-3.8-3.25-6.39-4.3c-2.67-1.05-5.91-1.62-9.72-1.62c-1.53,0-3.16,0.09-4.96,0.28
          c-1.81,0.2-3.54,0.67-5.34,1.44c-1.81,0.76-3.53,1.71-5.24,3.14c-1.72,1.34-3.15,3.25-4.49,5.53c-1.33,2.29-2.47,5.15-3.23,8.49
          c-0.77,3.34-1.34,7.44-1.34,12.2v33.57c0,4.77,0.48,8.77,1.24,12.21C106.16,41.2,107.2,44.06,108.44,46.35z M194.75,56.46h14.3
          v-82.97h15.26v-11.45h-44.83v11.45h15.27V56.46z M247.2,21.18h5.63l12.58,35.28h15.17l-15.17-37.95c4.02-2.01,6.67-5.25,8.68-9.83
          c2.11-4.48,2.67-10.39,2.67-17.64v-2.29c0-4.29,0-7.91-0.95-10.96c-0.96-3.05-1.91-5.54-3.45-7.54c-1.52-2-3.14-3.53-5.15-4.67
          c-2-1.14-4-2.01-6.11-2.57c-2.09-0.58-4.19-0.77-6.39-0.87c-2.09-0.19-4,0-5.81,0H232.9v94.42h14.3V21.18z M247.2-27.46h2.38
          c2.68,0,4.78,0.09,6.59,0.67c1.73,0.57,3.15,1.34,4.19,2.48c1.05,1.14,1.44,2.57,1.91,4.29c0.48,1.72,0.29,3.81,0.29,6.3v7.44
          c0,3.15,0.09,5.82-0.38,8.01c-0.48,2.2-1.05,3.91-2.09,5.25c-1.05,1.34-2.38,2.29-4.1,2.86s-3.81,0.86-6.3,0.86h-2.38v-38.15
          H247.2z M290.11-37.95h14.31v94.41h-14.31V-37.95z M333.99,27.85h1.42c1.81,0,3.82-0.28,5.91-0.57s4.2-0.86,6.2-1.62
          s4.01-1.91,5.91-3.43c1.9-1.43,3.53-3.43,5.05-5.91c1.43-2.48,2.29-5.53,3.15-9.06c0.86-3.62,0.96-7.91,0.96-12.97v-3.34
          c0-4.67-0.2-8.59-1.15-11.82c-0.96-3.25-2-5.91-3.62-8.11c-1.53-2.2-3.26-3.91-5.26-5.15c-2-1.25-4.1-2.2-6.19-2.77
          c-2.2-0.58-4.3-0.86-6.48-0.96c-2.2-0.19-4.11-0.09-5.91-0.09h-15.27v94.41h15.27V27.85z M333.99-27.46h0.77
          c2.66,0,4.95,0.09,6.66,0.77c1.72,0.66,3.15,1.52,4.2,2.86c1.05,1.34,1.71,2.96,2.09,5.05c0.38,2.1,0.47,4.38,0.47,7.24v8.49
          c0,3.53-0.09,6.58-0.56,9.16c-0.48,2.57-1.14,4.58-2.19,6.2c-1.05,1.62-2.49,2.96-4.2,3.72c-1.81,0.77-3.91,1.34-6.48,1.34h-0.77
          V-27.46z M399.88,58.09c-7.24,0-13.25,5.05-14.2,12.68h-643.07c-0.96-7.62-6.87-12.68-14.21-12.68c-7.91,0-14.3,6.29-14.3,14.21
          c0,7.91,6.39,14.48,14.3,14.48c7.25,0,13.16-5.52,14.12-12.2h27.75l29.27,50.45c-0.77,3.8-2.2,10.96-2.09,11.25
          c0.09,0.38,1.23-2.01,1.71-1.91c0.58,0,1.62,2.39,1.72,2.2c0.1-0.2-0.38-9.07-0.66-12.5l28.61-49.41h21.84l43.3,74.68
          c-0.95,4.48-3.14,15.84-3.05,16.22c0.09,0.48,1.62-0.48,2.29-0.48s2.19,1.05,2.29,0.77c0.09-0.19-0.48-11.25-0.86-16.12
          l43.48-75.06h41.59l29.09,50.08c-0.66,3.14-2.38,12.21-2.38,12.5c0.09,0.37,1.23-2.02,1.72-1.91c0.57,0,1.62,2.38,1.71,2.19
          c0.09-0.18-0.38-9.25-0.66-12.58l29.09-50.27h21.84l43.77,75.54l0.1-0.29c-0.96,4.3-3.15,16.22-3.15,16.6
          c0.09,0.47,1.62-0.48,2.28-0.38c0.67,0,2.2,1.05,2.3,0.76c0.09-0.28-0.66-14.4-1.05-17.64l43.1-74.49h41.39l28.71,49.51
          c-0.57,2.29-2.58,12.78-2.48,13.07c0.09,0.38,1.24-2.01,1.72-1.91c0.58,0,1.62,2.38,1.71,2.19c0.1-0.18-0.48-10.11-0.77-13.16
          l0.38,0.87l29.57-50.74h21.84l43.01,74.2c-1.05,5.14-2.86,14.38-2.77,14.77c0.09,0.48,1.62-0.48,2.29-0.48s2.19,1.05,2.28,0.77
          c0.1-0.19-0.38-9.05-0.77-14.4l43.41-74.86h28.7c0.95,6.67,6.96,12.1,14.11,12.1c7.91,0,14.3-6.38,14.3-14.29
          C414.09,64.47,407.8,58.09,399.88,58.09z"/>
      </clipPath>
    </defs>
    <g clip-path="url(#logo_vector)">
      
        <image overflow="visible" width="735" height="217" xlink:href="/static/images/logo_bg.jpg"  transform="matrix(0.95 0 0 0.95 -285.9062 -39.1953)">
      </image>
    </g>
  </g>
</svg>
